<svg xmlns="http://www.w3.org/2000/svg" width="260" height="61.046" viewBox="0 0 260 61.046">
  <g id="Group_2" data-name="Group 2" transform="translate(-1339.274 -305.408)">
    <path id="Path_1" data-name="Path 1" d="M1512.486,320.622" transform="translate(-111.793 -9.819)" fill="#fff"/>
    <line id="Line_1" data-name="Line 1" x1="0.257" transform="translate(1364.306 334.043)" fill="#fff"/>
    <path id="Path_2" data-name="Path 2" d="M1438.332,415.694q-.616.765-1.256,1.5a52.11,52.11,0,0,1-13.645,11.213,51.075,51.075,0,0,1-5.559-3.665c-1.9.587-3.839,1.1-5.79,1.529a55.4,55.4,0,0,0,10.2,7.042,2.425,2.425,0,0,0,2.292,0,58.845,58.845,0,0,0,23.707-23.865C1445.962,411.063,1442.525,413.318,1438.332,415.694Z" transform="translate(-46.992 -67.152)" fill="#0e97ff"/>
    <path id="Path_3" data-name="Path 3" d="M1375.472,364.735" transform="translate(-23.363 -38.29)" fill="#fff"/>
    <path id="Path_4" data-name="Path 4" d="M1581.319,381.178h-6.165V397.21h-5.969a.787.787,0,0,0,.587-.873v-15.16h-6.164v-4.044a.531.531,0,0,0-.517-.587h16.778c1.431,0,1.451.356,1.451,1.481Z" transform="translate(-144.454 -45.914)" fill="#fff"/>
    <path id="Path_5" data-name="Path 5" d="M1600.907,391.935h4.775v2.633h.059a4.528,4.528,0,0,1,4.514-2.923,5.263,5.263,0,0,1,1.158.116v4.486a6.949,6.949,0,0,0-1.881-.288,3.455,3.455,0,0,0-3.7,3.558s-.008,5.924,0,6.681.5.757.5.757h-5.42Z" transform="translate(-168.861 -55.658)" fill="#fff"/>
    <path id="Path_6" data-name="Path 6" d="M1646.839,399.786a7.811,7.811,0,0,1,1.269-4.331v-2.54a.579.579,0,0,1,.3-.451h-5.221v8.044c0,2.662-1.62,3.357-2.691,3.357-1.562,0-2.431-.695-2.431-2.69v-8.711h-4.919v9.029c0,3.934,1.245,6.424,5.556,6.424a5.532,5.532,0,0,0,4.572-2.49h.059v1.557c0,.289-.346.5-.346.5h3.927c1.01,0,1.193-.3,1.193-1.422v-1.6A8.4,8.4,0,0,1,1646.839,399.786Z" transform="translate(-189.669 -56.187)" fill="#fff"/>
    <path id="Path_7" data-name="Path 7" d="M1679.612,400.139a3.2,3.2,0,0,0,3.357,3.414,2.936,2.936,0,0,0,2.808-1.648h4.6c-.9,3.472-4.108,4.977-7.465,4.977-4.89,0-8.219-2.951-8.219-7.986a7.883,7.883,0,0,1,8.1-7.9c5.382,0,8.074,4.05,7.842,9.143Zm6.1-2.749a3.041,3.041,0,0,0-2.922-3.067,3.242,3.242,0,0,0-3.183,3.067Z" transform="translate(-216.482 -55.239)" fill="#fff"/>
    <g id="Group_1" data-name="Group 1" transform="translate(1476.171 329.451)">
      <path id="Path_8" data-name="Path 8" d="M1725.346,373.213h9.786c3.95,0,6.543,2.315,6.543,6.3s-2.593,6.3-6.543,6.3h-7.687v9.446h-2.1Zm2.1,10.8h7.224c2.9,0,4.908-1.481,4.908-4.505S1737.57,375,1734.669,375h-7.224Z" transform="translate(-1725.346 -373.213)" fill="#fff"/>
      <path id="Path_9" data-name="Path 9" d="M1779.158,390.043h1.79v3.735h.063a5.886,5.886,0,0,1,6.019-3.951v1.946a5.487,5.487,0,0,0-5.928,5.711v8.489h-1.944Z" transform="translate(-1760.077 -383.931)" fill="#fff"/>
      <path id="Path_10" data-name="Path 10" d="M1817.835,397.572c0,4.57-2.653,8.427-7.532,8.427s-7.532-3.858-7.532-8.427,2.654-8.427,7.532-8.427S1817.835,393,1817.835,397.572Zm-13.12,0c0,3.4,1.852,6.791,5.588,6.791s5.588-3.395,5.588-6.791-1.852-6.79-5.588-6.79S1804.715,394.176,1804.715,397.572Z" transform="translate(-1775.317 -383.496)" fill="#fff"/>
      <path id="Path_11" data-name="Path 11" d="M1851.338,382.14V394.3c0,2.376,1.173,2.47,2.13,2.47a6.336,6.336,0,0,0,1.358-.094v.618a10.574,10.574,0,0,1-1.512.092c-1.452,0-2.594-.71-2.594-2.964V382.14h-2.932v-.618h2.932v-5h.618v5h3.581v.618Z" transform="translate(-1804.371 -375.349)" fill="#fff"/>
      <path id="Path_12" data-name="Path 12" d="M1872,398.006c.062,4.26,1.76,7.564,6.266,7.564a5.836,5.836,0,0,0,6.2-5.249h.618a6.43,6.43,0,0,1-6.761,5.866c-4.908.062-6.946-3.581-6.946-8.3,0-5.278,3.365-8.3,6.946-8.3,4.939,0,7.13,4.076,6.946,8.427Zm12.655-.617c.032-3.89-2.159-7.192-6.265-7.192-3.428,0-6.175,2.747-6.391,7.192Z" transform="translate(-1819.6 -383.776)" fill="#fff"/>
      <path id="Path_13" data-name="Path 13" d="M1928.964,400.415a6.127,6.127,0,0,1-6.484,5.772c-4.507,0-7.038-3.642-7.038-7.964,0-4.6,2.315-8.644,7.41-8.644a5.746,5.746,0,0,1,5.988,5.186h-.617a5.137,5.137,0,0,0-5.371-4.568c-5.063,0-6.792,4.29-6.792,8.026,0,3.888,2.223,7.347,6.42,7.347a5.549,5.549,0,0,0,5.866-5.155Z" transform="translate(-1848.036 -383.776)" fill="#fff"/>
      <path id="Path_14" data-name="Path 14" d="M1959.4,382.14V394.3c0,2.376,1.174,2.47,2.129,2.47a6.349,6.349,0,0,0,1.359-.094v.618a10.579,10.579,0,0,1-1.512.092c-1.452,0-2.593-.71-2.593-2.964V382.14h-2.933v-.618h2.933v-5h.617v5h3.581v.618Z" transform="translate(-1874.114 -375.349)" fill="#fff"/>
      <path id="Path_15" data-name="Path 15" d="M1982.671,376.331h-.617v-3.118h.617Zm0,18.923h-.617V379.387h.617Z" transform="translate(-1891.028 -373.213)" fill="#fff"/>
      <path id="Path_16" data-name="Path 16" d="M1998.185,389.579c4.63,0,7.132,3.982,7.132,8.3,0,4.353-2.5,8.3-7.163,8.3-4.63,0-7.13-3.951-7.13-8.3C1991.024,393.561,1993.524,389.579,1998.185,389.579Zm0,15.991c4.229,0,6.514-3.674,6.514-7.687,0-3.951-2.284-7.686-6.514-7.686-4.29,0-6.543,3.735-6.543,7.686C1991.642,401.9,1993.9,405.57,1998.185,405.57Z" transform="translate(-1896.817 -383.776)" fill="#fff"/>
      <path id="Path_17" data-name="Path 17" d="M2038.565,389.95h.617v3.92h.062a5.54,5.54,0,0,1,5.711-4.291c3.3,0,5.649,2.038,5.649,5.711v10.526h-.617V395.382c0-3.673-2.346-5.185-5.032-5.185-3.8,0-5.773,3.118-5.773,6.637v8.982h-.617Z" transform="translate(-1927.5 -383.776)" fill="#fff"/>
    </g>
    <path id="Path_18" data-name="Path 18" d="M1438.854,332.595l.738-2.236.749,2.246s2.362-.021,2.362,0-1.94,1.413-1.94,1.413l.728,2.235-1.908-1.381-1.919,1.381.728-2.246-1.909-1.392Z" transform="translate(-62.739 -16.104)" fill="#fff"/>
    <path id="Path_19" data-name="Path 19" d="M1415.14,340.062l-.006-1.655,1.007,1.324s1.582-.549,1.587-.535-.986,1.38-.986,1.38l.99,1.322-1.592-.486-.979,1.354-.015-1.659-1.594-.493Z" transform="translate(-47.939 -21.298)" fill="#fff"/>
    <path id="Path_20" data-name="Path 20" d="M1394.639,351.141l-.337-1.383,1.109.906s1.214-.777,1.22-.767-.548,1.353-.548,1.353l1.095.907-1.43-.087-.547,1.33-.346-1.385-1.433-.093Z" transform="translate(-34.947 -28.624)" fill="#fff"/>
    <path id="Path_21" data-name="Path 21" d="M1467.187,340.062l.006-1.655-1.007,1.324s-1.582-.549-1.587-.535.987,1.38.987,1.38l-.99,1.322,1.592-.486.979,1.354.015-1.659,1.594-.493Z" transform="translate(-80.884 -21.298)" fill="#fff"/>
    <path id="Path_22" data-name="Path 22" d="M1488.459,351.141l.337-1.383-1.109.906s-1.213-.777-1.22-.767.548,1.353.548,1.353l-1.095.907,1.43-.087.548,1.33.346-1.385,1.434-.093Z" transform="translate(-94.648 -28.624)" fill="#fff"/>
    <path id="Path_23" data-name="Path 23" d="M1415.852,315.36c-2.06-4.184-8.367-5.774-16.842-4.946l-.161.091c7.035-.2,12.246,1.558,14.127,5.378,2.322,4.716-.883,11.26-7.8,17.824a61.386,61.386,0,0,0,3.035-11.038.3.3,0,0,0,.029-.089,14.247,14.247,0,0,0,.175-2.109,26.491,26.491,0,0,0-2.323-2.018c-3.374-2.642-12.452-8.773-28.018-12.631h0l-1.477-.414-1.061.292c-15.276,3.944-24.328,10.022-27.98,12.9a27.722,27.722,0,0,0-2.681,2.361,14.278,14.278,0,0,0,.206,2.107c0,.006,0,.01.005.016a57.851,57.851,0,0,0,2.255,8.893l3.9-3.872a43.918,43.918,0,0,1-1.264-5.219c2.689-2.2,11.331-8.467,26.594-12.441,15.282,3.73,24.013,9.845,26.756,12.014a59.4,59.4,0,0,1-2.874,10.038c-.016-.034-.027-.07-.043-.1a5.622,5.622,0,0,0-1.652-1.993,7.787,7.787,0,0,0-2.664-1.277,13.118,13.118,0,0,0-3.646-.429l-12.387.094-4.916,5.17,16.987-.13a3.157,3.157,0,0,1,1.965.5,1.651,1.651,0,0,1,.674,1.366,2.318,2.318,0,0,1-.9,1.895,3.885,3.885,0,0,1-2.5.756l-16.987.129-2.246,14.091c-1.815.583-3.6,1.086-5.331,1.507a51.16,51.16,0,0,1-3.763-3.894c-.411-.473-.811-.958-1.207-1.448l2.514-14.692,7.02-.053,4.856-5.169-22.187.169-4.961,5.17,9.138-.07-2.351,14.361-.055.328a58.823,58.823,0,0,0,5.272,6.422c-9.735,1.427-17.218-.138-19.555-4.884a8.037,8.037,0,0,1-.595-4.994c.349-2.04,1.131-3.408,2.624-5.71l-.151.212a20.3,20.3,0,0,0-3.929,7.87,7.757,7.757,0,0,0,.505,5.038c4.028,8.178,24.278,6.444,45.231-3.874a105.481,105.481,0,0,0,9.869-5.524l-.015.024q.945-.6,1.891-1.244l.093-.062.318-.215C1411.141,332.53,1419.033,321.82,1415.852,315.36Zm-31.223,32.119q-3.048,1.5-6.064,2.731l1.04-6.736,10.322-.079a18.244,18.244,0,0,0,2.521-.188C1390,344.691,1387.383,346.123,1384.629,347.479Z" transform="translate(0 0)" fill="#fff"/>
  </g>
</svg>
